<?xml version="1.0" encoding="utf-8"?>
<!-- Generator: Adobe Illustrator 17.0.0, SVG Export Plug-In . SVG Version: 6.00 Build 0)  -->
<!DOCTYPE svg PUBLIC "-//W3C//DTD SVG 1.1//EN" "http://www.w3.org/Graphics/SVG/1.1/DTD/svg11.dtd">
<svg version="1.1" id="Layer_1" xmlns="http://www.w3.org/2000/svg" xmlns:xlink="http://www.w3.org/1999/xlink" x="0px" y="0px"
	 width="250px" height="250px" viewBox="0 0 250 250" enable-background="new 0 0 250 250" xml:space="preserve">
<g>
	<g>
		<g>
			<polygon fill="#E0CAB1" points="146.389,130.675 161.226,137.034 154.867,122.197 			"/>
			<polygon opacity="0.4" fill="#FFFFFF" points="154.867,122.197 161.226,137.034 150.628,126.436 			"/>
		</g>
		<g>
			<polygon fill="#E0CAB1" points="133.672,143.393 148.509,149.751 142.15,134.915 			"/>
			<polygon opacity="0.4" fill="#FFFFFF" points="142.15,134.915 148.509,149.751 137.911,139.154 			"/>
		</g>
		<g>
			<polygon fill="#E0CAB1" points="120.954,156.11 135.791,162.469 129.433,147.632 			"/>
			<polygon opacity="0.4" fill="#FFFFFF" points="129.433,147.632 135.791,162.469 125.194,151.871 			"/>
		</g>
		<g>
			<polygon fill="#E0CAB1" points="159.106,117.958 173.943,124.317 167.585,109.48 			"/>
			<polygon opacity="0.4" fill="#FFFFFF" points="167.585,109.48 173.943,124.317 163.345,113.719 			"/>
		</g>
		<g>
			<polygon fill="#E0CAB1" points="171.824,105.241 186.661,111.599 180.302,96.763 			"/>
			<polygon opacity="0.4" fill="#FFFFFF" points="180.302,96.763 186.661,111.599 176.063,101.002 			"/>
		</g>
		<g>
			<polygon fill="#E0CAB1" points="184.541,92.524 199.378,98.882 193.019,84.045 			"/>
			<polygon opacity="0.4" fill="#FFFFFF" points="193.019,84.045 199.378,98.882 188.78,88.284 			"/>
		</g>
		<g>
			<polygon fill="#E0CAB1" points="197.258,79.806 212.095,86.165 205.736,71.328 			"/>
			<polygon opacity="0.4" fill="#FFFFFF" points="205.736,71.328 212.095,86.165 201.497,75.567 			"/>
		</g>
		<g>
			<polygon fill="#E0CAB1" points="209.976,67.089 224.812,73.448 218.454,58.611 			"/>
			<polygon opacity="0.4" fill="#FFFFFF" points="218.454,58.611 224.812,73.448 214.215,62.85 			"/>
		</g>
	</g>
	<polygon fill="#00A99D" points="203.83,45.566 188.842,45.566 185.844,60.554 92.922,126.499 65.945,126.499 44.962,144.484 
		26.976,138.489 8.989,144.484 0,144.484 0,202.434 44.962,202.434 119.9,202.434 119.9,165.466 224.812,60.554 	"/>
	<g opacity="0.2">
		
			<rect x="180.189" y="141.193" transform="matrix(0.8651 -0.5017 0.5017 0.8651 -48.9177 112.5079)" fill="#736357" width="8.992" height="11.99"/>
		<polygon fill="#736357" points="235.924,107.08 190.753,136.739 196.768,147.111 244.946,122.638 		"/>
	</g>
	<g>
		<g>
			<polygon fill="#E0CAB1" points="155.87,183.451 161.865,168.464 167.86,183.451 			"/>
			<polygon opacity="0.4" fill="#FFFFFF" points="167.86,183.451 161.865,168.464 161.865,183.451 			"/>
		</g>
		<g>
			<polygon fill="#E0CAB1" points="173.855,183.451 179.85,168.464 185.845,183.451 			"/>
			<polygon opacity="0.4" fill="#FFFFFF" points="185.845,183.451 179.85,168.464 179.85,183.451 			"/>
		</g>
		<g>
			<polygon fill="#E0CAB1" points="191.84,183.451 197.835,168.464 203.83,183.451 			"/>
			<polygon opacity="0.4" fill="#FFFFFF" points="203.83,183.451 197.835,168.464 197.835,183.451 			"/>
		</g>
		<g>
			<polygon fill="#E0CAB1" points="209.825,183.451 215.82,168.464 221.815,183.451 			"/>
			<polygon opacity="0.4" fill="#FFFFFF" points="221.815,183.451 215.82,168.464 215.82,183.451 			"/>
		</g>
		<g>
			<polygon fill="#E0CAB1" points="227.81,183.451 233.805,168.464 239.8,183.451 			"/>
			<polygon opacity="0.4" fill="#FFFFFF" points="239.8,183.451 233.805,168.464 233.805,183.451 			"/>
		</g>
	</g>
	<polygon opacity="0.2" fill="#FFFFFF" points="92.922,126.499 107.91,144.484 185.845,60.554 	"/>
	<polyline opacity="0.2" fill="#FFFFFF" points="185.845,60.554 179.85,81.536 92.922,126.499 	"/>
	<polygon opacity="0.2" fill="#FFFFFF" points="92.922,126.499 92.922,126.499 107.91,144.484 65.945,126.499 	"/>
	<polygon opacity="0.2" fill="#FFFFFF" points="44.962,144.484 107.91,144.484 92.922,126.499 65.945,126.499 44.962,144.484 	"/>
	<polygon fill="#E0CAB1" points="152.872,177 134.889,165 113.905,165 107.91,165 95.92,165 83.93,177.223 0,198.439 0,204 
		83.93,204 158.867,204 188.842,195.224 236.802,186.112 248.792,177 	"/>
	<polygon opacity="0.2" fill="#FFFFFF" points="188.842,45.566 224.812,60.554 203.83,45.566 	"/>
	<polygon fill="#FFFFFF" points="71.94,144.484 83.93,138.489 95.92,144.484 80.932,153.476 	"/>
	<polygon opacity="0.3" fill="#FFFFFF" points="134.887,165.466 95.92,165.466 83.93,177.456 	"/>
	<polygon opacity="0.3" fill="#FFFFFF" points="95.92,165.466 83.93,204.434 83.93,177.456 	"/>
	<polygon opacity="0.2" fill="#FFFFFF" points="44.962,144.484 44.962,156.474 92.922,126.499 65.945,126.499 	"/>
	<polygon opacity="0.2" fill="#FFFFFF" points="185.845,60.554 203.83,45.566 188.842,45.566 	"/>
	<polygon opacity="0.2" fill="#FFFFFF" points="0,144.484 11.99,168.464 26.977,138.489 8.992,144.484 	"/>
	<polyline opacity="0.2" fill="#FFFFFF" points="8.989,144.484 20.982,150.479 26.976,138.489 	"/>
	<polygon opacity="0.2" fill="#FFFFFF" points="44.962,144.484 44.962,156.474 17.985,141.486 26.977,138.489 	"/>
	<polygon opacity="0.1" fill="#534741" points="236.802,186.449 161.865,192.444 119.9,204.434 158.867,204.434 188.842,195.441 	
		"/>
	<polygon opacity="0.1" fill="#534741" points="188.842,195.441 161.865,192.444 158.867,204.434 158.867,204.434 	"/>
	<polygon opacity="0.3" fill="#FFFFFF" points="0,198.439 50.957,192.444 83.93,177.456 	"/>
</g>
</svg>
