<?xml version="1.0" encoding="utf-8"?>
<!-- Generator: Adobe Illustrator 17.0.0, SVG Export Plug-In . SVG Version: 6.00 Build 0)  -->
<!DOCTYPE svg PUBLIC "-//W3C//DTD SVG 1.1//EN" "http://www.w3.org/Graphics/SVG/1.1/DTD/svg11.dtd">
<svg version="1.1" id="Layer_1" xmlns="http://www.w3.org/2000/svg" xmlns:xlink="http://www.w3.org/1999/xlink" x="0px" y="0px"
	 width="250px" height="250px" viewBox="0 0 250 250" enable-background="new 0 0 250 250" xml:space="preserve">
<g>
	<path fill="#021E52" d="M194.642,209.411c0.109,0.44,0.217,0.88,0.326,1.32c-22.891,11.656-70.201,34.942-70.201,34.942
		s-56.516-26.737-69.658-33.455c11.624-5.837,23.248-11.675,34.874-17.51c11.316,5.533,22.63,11.063,33.95,16.596
		c11.833-5.911,23.3-11.639,34.767-17.367C170.681,199.095,182.661,204.253,194.642,209.411z"/>
	<path fill="#02A498" d="M89.981,194.706c-11.624,5.838-23.248,11.675-34.872,17.512c-0.745-0.122-1.491-0.244-2.236-0.365
		c-0.104-12.06-0.209-24.121-0.313-36.181c11.385-6.063,23.894-12.688,35.278-18.75c12.345,6.065,23.566,12.691,35.911,18.756
		C112.493,182.02,101.237,188.363,89.981,194.706z"/>
	<path fill="#03A599" d="M194.882,41.455c0.035,32.785,0.069,65.569,0.104,98.354c-11.363,6.029-22.725,12.057-34.088,18.085
		c-11.946-5.362-23.891-10.723-35.837-16.084c-0.37-0.7-0.74-1.401-1.11-2.102c12.988-6.789,25.976-13.578,38.52-20.135
		c0-20.808,0-40.89,0-60.972C172.495,52.544,194.103,41.113,194.882,41.455z"/>
	<path fill="#02225D" d="M194.882,41.455c-10.025,6.057-22.387,11.089-32.413,17.146c-12.863-5.696-25.726-11.392-38.839-17.198
		c-13.031,5.74-26.109,11.502-39.187,17.263c-10.496-5.289-20.992-10.579-31.489-15.868c-0.07-0.428-0.139-0.855-0.209-1.283
		c22.828-11.596,45.656-23.192,68.484-34.788C145.001,17.961,171.11,30.221,194.882,41.455z"/>
	<path fill="#003D69" d="M84,119.539c0-6.24,0-12.426,0-18.612c0-14.087,0.354-28.174,0.619-42.261
		c-10.496-5.289-21.08-10.579-31.577-15.868c0.006,20.238-0.032,40.476-0.027,60.714c-0.061,12.047-0.144,24.094-0.204,36.141
		c10.337,5.08,94.248,48.197,105.898,54.283c11.981,5.158,23.957,10.317,35.937,15.475c0.051-11.19,0.24-22.381,0.291-33.571
		C183.639,169.858,97,126.367,84,119.539z"/>
</g>
</svg>
