<?xml version="1.0" encoding="utf-8"?>
<!-- Generator: Adobe Illustrator 17.0.0, SVG Export Plug-In . SVG Version: 6.00 Build 0)  -->
<!DOCTYPE svg PUBLIC "-//W3C//DTD SVG 1.1//EN" "http://www.w3.org/Graphics/SVG/1.1/DTD/svg11.dtd">
<svg version="1.1" xmlns="http://www.w3.org/2000/svg" xmlns:xlink="http://www.w3.org/1999/xlink" x="0px" y="0px" width="2000px"
	 height="503.5px" viewBox="0 0 2000 503.5" enable-background="new 0 0 2000 503.5" xml:space="preserve">
<g id="Layer_1">
	<polygon opacity="0.2" fill="#FFFFFF" enable-background="new    " points="1665.5,271.5 1425.5,391.5 1665.5,511.5 1905.5,391.5 	
		"/>
	<polygon opacity="0.3" fill="#FFFFFF" enable-background="new    " points="1585.5,-88.5 1345.5,31.5 1585.5,151.5 1825.5,31.5 	
		"/>
	<polygon opacity="0.1" fill="#FFFFFF" enable-background="new    " points="1665.5,-48.5 1425.5,71.5 1665.5,191.5 1905.5,71.5 	
		"/>
	<polygon opacity="0.2" fill="#FFFFFF" enable-background="new    " points="1505.5,271.5 1265.5,391.5 1505.5,511.5 1745.5,391.5 	
		"/>
	<polygon opacity="0.3" fill="#FFFFFF" enable-background="new    " points="1425.5,231.5 1185.5,351.5 1425.5,471.5 1665.5,351.5 	
		"/>
	<polygon opacity="0.3" fill="#FFFFFF" enable-background="new    " points="1345.5,191.5 1105.5,311.5 1345.5,431.5 1585.5,311.5 	
		"/>
	<polygon opacity="0.3" fill="#FFFFFF" enable-background="new    " points="1425.5,151.5 1185.5,271.5 1425.5,391.5 1665.5,271.5 	
		"/>
	<polygon opacity="0.3" fill="#FFFFFF" enable-background="new    " points="1505.5,111.5 1265.5,231.5 1505.5,351.5 1745.5,231.5 	
		"/>
	<polygon opacity="0.2" fill="#FFFFFF" enable-background="new    " points="1265.5,71.5 945.5,231.5 1265.5,391.5 1585.5,231.5 	
		"/>
	<polygon opacity="0.3" fill="#FFFFFF" enable-background="new    " points="1505.5,31.5 1265.5,151.5 1505.5,271.5 1745.5,151.5 	
		"/>
	<polygon opacity="0.5" fill="#FFFFFF" enable-background="new    " points="1425.5,71.5 1105.5,231.5 1425.5,391.5 1745.5,231.5 	
		"/>
	<polygon opacity="0.1" fill="#FFFFFF" enable-background="new    " points="1745.5,71.5 1505.5,191.5 1745.5,311.5 1985.5,191.5 	
		"/>
	<polygon opacity="0.3" fill="#FFFFFF" enable-background="new    " points="1745.5,151.5 1505.5,271.5 1745.5,391.5 1985.5,271.5 	
		"/>
	<polygon opacity="0.3" fill="#FFFFFF" enable-background="new    " points="1505.5,111.5 1185.5,271.5 1505.5,431.5 1825.5,271.5 	
		"/>
	<polygon opacity="0.4" fill="#FFFFFF" enable-background="new    " points="1425.5,-8.5 1185.5,111.5 1425.5,231.5 1665.5,111.5 	
		"/>
	<polygon opacity="0.4" fill="#FFFFFF" enable-background="new    " points="1425.5,-88.5 1185.5,31.5 1425.5,151.5 1665.5,31.5 	
		"/>
	<polygon opacity="0.4" fill="#FFFFFF" enable-background="new    " points="1425.5,311.5 1185.5,431.5 1425.5,551.5 1665.5,431.5 	
		"/>
	<polygon opacity="0.3" fill="#FFFFFF" enable-background="new    " points="1265.5,231.5 1025.5,351.5 1265.5,471.5 1505.5,351.5 	
		"/>
	<polygon opacity="0.1" fill="#FFFFFF" enable-background="new    " points="1185.5,271.5 945.5,391.5 1185.5,511.5 1425.5,391.5 	
		"/>
	<polygon opacity="0.2" fill="#FFFFFF" enable-background="new    " points="1665.5,-48.5 1425.5,71.5 1665.5,191.5 1905.5,71.5 	
		"/>
	<polygon opacity="0.1" fill="#FFFFFF" enable-background="new    " points="1025.5,111.5 785.5,231.5 1025.5,351.5 1265.5,231.5 	
		"/>
	<polygon opacity="0.2" fill="#FFFFFF" enable-background="new    " points="1265.5,151.5 1185.5,191.5 1265.5,231.5 1345.5,191.5 	
		"/>
	<polygon opacity="0.2" fill="#FFFFFF" enable-background="new    " points="1265.5,151.5 1105.5,231.5 1265.5,311.5 	"/>
	<polygon opacity="0.2" fill="#FFFFFF" enable-background="new    " points="1665.5,191.5 1505.5,271.5 1665.5,351.5 	"/>
	<polygon opacity="0.2" fill="#FFFFFF" enable-background="new    " points="1585.5,311.5 1425.5,391.5 1585.5,471.5 	"/>
	<polygon opacity="0.2" fill="#FFFFFF" enable-background="new    " points="1665.5,351.5 1505.5,431.5 1665.5,511.5 	"/>
	<polygon opacity="0.4" fill="#FFFFFF" enable-background="new    " points="1665.5,111.5 1505.5,191.5 1665.5,271.5 	"/>
	<polygon opacity="0.2" fill="#FFFFFF" enable-background="new    " points="1265.5,311.5 1105.5,391.5 1265.5,471.5 	"/>
	<polygon opacity="0.1" fill="#FFFFFF" enable-background="new    " points="1185.5,351.5 1025.5,431.5 1185.5,511.5 	"/>
	<polygon opacity="0.2" fill="#FFFFFF" enable-background="new    " points="1025.5,31.5 865.5,111.5 1025.5,191.5 	"/>
	<polygon opacity="0.2" fill="#FFFFFF" enable-background="new    " points="1185.5,191.5 1025.5,271.5 1185.5,351.5 	"/>
	<polygon opacity="0.2" fill="#FFFFFF" enable-background="new    " points="1025.5,111.5 865.5,191.5 1025.5,271.5 	"/>
	<polygon opacity="0.2" fill="#FFFFFF" enable-background="new    " points="1345.5,111.5 1185.5,191.5 1345.5,271.5 	"/>
	<polygon opacity="0.2" fill="#FFFFFF" enable-background="new    " points="1425.5,71.5 1345.5,111.5 1425.5,151.5 1505.5,111.5 	
		"/>
	<polygon opacity="0.2" fill="#FFFFFF" enable-background="new    " points="1265.5,231.5 1185.5,271.5 1265.5,311.5 1345.5,271.5 	
		"/>
	<polygon opacity="0.2" fill="#FFFFFF" enable-background="new    " points="1105.5,151.5 1025.5,191.5 1105.5,231.5 1185.5,191.5 	
		"/>
	<polygon opacity="0.2" fill="#FFFFFF" enable-background="new    " points="1105.5,151.5 1105.5,231.5 1185.5,191.5 	"/>
	<polygon opacity="0.4" fill="#FFFFFF" enable-background="new    " points="1585.5,71.5 1425.5,151.5 1585.5,231.5 1585.5,151.5 
		1665.5,111.5 	"/>
	<polygon opacity="0.2" fill="#FFFFFF" enable-background="new    " points="1105.5,231.5 1105.5,311.5 1185.5,271.5 	"/>
	<polygon opacity="0.2" fill="#FFFFFF" enable-background="new    " points="1345.5,271.5 1345.5,431.5 1505.5,351.5 	"/>
	<polygon opacity="0.2" fill="#FFFFFF" enable-background="new    " points="1425.5,311.5 1425.5,471.5 1585.5,391.5 	"/>
	<polygon opacity="0.2" fill="#FFFFFF" enable-background="new    " points="1825.5,111.5 1825.5,191.5 1905.5,151.5 	"/>
	<polygon opacity="0.2" fill="#FFFFFF" enable-background="new    " points="1345.5,191.5 1345.5,271.5 1265.5,231.5 	"/>
	<polygon opacity="0.3" fill="#FFFFFF" enable-background="new    " points="1265.5,-8.5 1025.5,111.5 1265.5,231.5 1505.5,111.5 	
		"/>
	<polygon opacity="0.3" fill="#FFFFFF" enable-background="new    " points="1425.5,391.5 1185.5,511.5 1425.5,631.5 1665.5,511.5 	
		"/>
	<polygon opacity="0.3" fill="#FFFFFF" enable-background="new    " points="1665.5,31.5 1505.5,111.5 1665.5,191.5 1825.5,111.5 	
		"/>
	<polygon opacity="0.3" fill="#FFFFFF" enable-background="new    " points="1665.5,271.5 1505.5,351.5 1665.5,431.5 1825.5,351.5 	
		"/>
	<polygon opacity="0.3" fill="#FFFFFF" enable-background="new    " points="1745.5,151.5 1585.5,231.5 1745.5,311.5 1905.5,231.5 	
		"/>
	<polygon opacity="0.3" fill="#FFFFFF" enable-background="new    " points="1265.5,-8.5 1025.5,111.5 1265.5,231.5 1505.5,111.5 	
		"/>
	<polygon opacity="0.2" fill="#FFFFFF" enable-background="new    " points="1185.5,-48.5 945.5,71.5 1185.5,191.5 1425.5,71.5 	"/>
	<polygon opacity="0.2" fill="#FFFFFF" enable-background="new    " points="1025.5,-128.5 785.5,-8.5 1025.5,111.5 1265.5,-8.5 	
		"/>
</g>
<g id="Layer_2" display="none">
</g>
</svg>
