<?xml version="1.0" encoding="utf-8"?>
<!-- Generator: Adobe Illustrator 17.0.0, SVG Export Plug-In . SVG Version: 6.00 Build 0)  -->
<!DOCTYPE svg PUBLIC "-//W3C//DTD SVG 1.1//EN" "http://www.w3.org/Graphics/SVG/1.1/DTD/svg11.dtd">
<svg version="1.1" id="Layer_1" xmlns="http://www.w3.org/2000/svg" xmlns:xlink="http://www.w3.org/1999/xlink" x="0px" y="0px"
	 width="512px" height="512px" viewBox="0 0 512 512">
<g>
	
		<linearGradient id="SVGID_1_" gradientUnits="userSpaceOnUse" x1="96.5875" y1="307.7425" x2="178.1525" y2="226.1775" gradientTransform="matrix(1 0 0 -1 -21 515.5)">
		<stop  offset="0" style="stop-color:#000000;stop-opacity:0.15"/>
		<stop  offset="0.9331" style="stop-color:#000000;stop-opacity:0"/>
	</linearGradient>
	<polygon fill="url(#SVGID_1_)" points="99.619,346.855 18.054,265.291 133.121,150.224 214.686,231.789 	"/>
	<rect x="17.771" y="150.507" fill="#00A99D" width="115.35" height="115.35"/>
	<g>
		<g>
			<defs>
				<rect id="SVGID_2_" x="17.771" y="150.507" width="115.35" height="115.35"/>
			</defs>
			<clipPath id="SVGID_3_">
				<use xlink:href="#SVGID_2_"  overflow="visible"/>
			</clipPath>
			
				<linearGradient id="SVGID_4_" gradientUnits="userSpaceOnUse" x1="-295.955" y1="697.5073" x2="-213.068" y2="614.6204" gradientTransform="matrix(0.5689 0.1954 -0.1954 -0.5689 377.4465 660.1407)">
				<stop  offset="0" style="stop-color:#000000;stop-opacity:0.25"/>
				<stop  offset="1" style="stop-color:#000000;stop-opacity:0"/>
			</linearGradient>
			<polygon clip-path="url(#SVGID_3_)" fill="url(#SVGID_4_)" points="114.179,288.927 51.839,226.445 104.283,194.965 
				157.152,247.833 			"/>
		</g>
	</g>
	<path fill="#60C6BA" d="M35.794,208.182c0,0,18.023-28.837,39.652-28.837s39.652,28.837,39.652,28.837
		s-18.023,28.837-39.652,28.837S35.794,208.182,35.794,208.182z"/>
	<g>
		<circle fill="#9BEADF" cx="75.446" cy="208.182" r="24.031"/>
	</g>
	<path fill="#00A99D" d="M75.446,191.017c0,0,3.433,6.866,3.433,17.165c0,10.299-3.433,17.165-3.433,17.165
		s-3.433-6.866-3.433-17.165S75.446,191.017,75.446,191.017z"/>
	<circle opacity="0.5" fill="#FFFFFF" cx="65.692" cy="193.48" r="4.806"/>
	<circle opacity="0.5" fill="#FFFFFF" cx="58.483" cy="200.689" r="2.403"/>
</g>
<g>
	
		<linearGradient id="SVGID_5_" gradientUnits="userSpaceOnUse" x1="257.8238" y1="302.9348" x2="330.7972" y2="229.9612" gradientTransform="matrix(1 0 0 -1 -21 515.5)">
		<stop  offset="0" style="stop-color:#000000;stop-opacity:0.25"/>
		<stop  offset="0.9" style="stop-color:#000000;stop-opacity:0"/>
	</linearGradient>
	<path fill="url(#SVGID_5_)" d="M280.122,169.267l-6.495,6.495c9.419,9.419,15.245,22.431,15.245,36.803
		c0,28.745-23.303,52.048-52.048,52.048c-14.373,0-27.385-5.826-36.803-15.244l-6.495,6.495l72.973,72.973l86.596-86.596
		L280.122,169.267z"/>
	<circle fill="#60C6BA" cx="234.744" cy="209.304" r="61.828"/>
	<path fill="#00A99D" d="M205.498,263.784c8.708,4.684,18.665,7.347,29.246,7.347c34.146,0,61.828-27.681,61.828-61.828
		s-27.681-61.828-61.828-61.828v59.767L205.498,263.784z"/>
	<g>
		<g>
			<defs>
				<circle id="SVGID_6_" cx="234.744" cy="209.304" r="61.828"/>
			</defs>
			<clipPath id="SVGID_7_">
				<use xlink:href="#SVGID_6_"  overflow="visible"/>
			</clipPath>
			
				<linearGradient id="SVGID_8_" gradientUnits="userSpaceOnUse" x1="255.4549" y1="307.666" x2="302.554" y2="260.567" gradientTransform="matrix(1 0 0 -1 -21 515.5)">
				<stop  offset="0" style="stop-color:#000000;stop-opacity:0.25"/>
				<stop  offset="1" style="stop-color:#000000;stop-opacity:0"/>
			</linearGradient>
			<path clip-path="url(#SVGID_7_)" fill="url(#SVGID_8_)" d="M265.96,176.329l-4.726,4.726
				c6.853,6.853,11.092,16.321,11.092,26.779c0,20.916-16.955,37.871-37.871,37.871c-10.458,0-19.926-4.239-26.779-11.092
				l-4.726,4.726l47.099,47.099l63.009-63.009L265.96,176.329z"/>
		</g>
	</g>
	<path fill="#9BEADF" d="M234.744,209.304v-61.828c-9.586,0-18.663,2.183-26.76,6.077L234.744,209.304z"/>
	<circle fill="#60C6BA" cx="234.744" cy="209.304" r="45.34"/>
	<path fill="#00A99D" d="M280.084,209.304c0-25.041-20.3-45.34-45.34-45.34v90.681C259.784,254.644,280.084,234.345,280.084,209.304
		z"/>
	<path fill="#9BEADF" d="M191.933,194.37l42.811,14.934v-45.34C214.937,163.963,198.108,176.669,191.933,194.37z"/>
</g>
<polyline opacity="0.25" fill="none" stroke="#000000" stroke-width="2" stroke-miterlimit="10" points="
	279.84,363.568 234.553,319.472 234.553,281.497 "/>
<polyline opacity="0.25" fill="none" stroke="#000000" stroke-width="2" stroke-miterlimit="10" points="
	129.485,373.568 74.198,319.472 74.198,275.497 "/>
<polyline opacity="0.25" fill="none" stroke="#000000" stroke-width="2" stroke-miterlimit="10" points="
	419.84,353.568 384.553,319.472 384.553,271.497 "/>
<g>
	
		<linearGradient id="SVGID_9_" gradientUnits="userSpaceOnUse" x1="-200.793" y1="106.424" x2="-200.793" y2="7.5" gradientTransform="matrix(-1 0 0 -1 238 515.5)">
		<stop  offset="0" style="stop-color:#000000;stop-opacity:0.25"/>
		<stop  offset="0.7074" style="stop-color:#000000;stop-opacity:0"/>
	</linearGradient>
	<polygon fill="url(#SVGID_9_)" points="836.551,508 774.724,446.172 601.606,433.807 432.61,409.076 111.106,433.807 
		94.619,429.685 41.035,435.868 113.167,508 	"/>
	<polygon fill="#00A99D" points="41.035,421.441 47.333,415.472 57.41,417.805 128.466,396.535 139.802,384.345 158.136,384.345 
		176.489,388.466 176.791,388.528 177.056,388.466 205.909,380.223 226.518,380.223 263.615,371.979 280.102,376.101 
		337.808,371.979 370.783,363.735 432.61,363.735 506.804,376.101 535.657,384.345 589.241,400.832 605.728,400.832 
		646.946,413.198 725.261,425.563 774.724,446.172 679.921,446.172 642.837,450.294 622.208,450.294 539.778,446.172 
		510.925,442.05 449.098,446.172 438.106,446.172 432.61,454.416 424.367,458.538 370.783,458.538 383.148,450.294 389.083,446.337 
		333.686,450.294 284.224,446.172 259.493,446.172 255.371,454.416 247.127,458.538 205.909,458.538 218.274,446.172 
		168.812,446.172 145.391,443.57 145.391,445.364 99.152,446.172 80.656,444.333 51.062,442.495 44.975,435.346 41.035,435.413 	"/>
	<polygon opacity="0.15" fill="#FFFFFF" points="354.295,384.345 337.808,371.979 370.783,363.735 	"/>
	<polygon opacity="0.15" fill="#FFFFFF" points="725.261,425.563 729.383,437.929 663.434,429.685 
		605.728,417.319 576.875,421.441 502.682,400.832 506.804,376.101 531.535,384.345 589.241,400.832 605.728,400.832 
		646.946,413.198 	"/>
	<polygon opacity="0.15" fill="#FFFFFF" points="506.804,376.101 440.854,376.101 432.61,363.735 	"/>
	<polygon opacity="0.15" fill="#FFFFFF" points="535.656,384.345 502.682,400.832 440.854,376.101 
		370.783,363.735 432.61,363.735 506.804,376.101 	"/>
	<polygon opacity="0.15" fill="#FFFFFF" points="605.728,400.832 605.728,417.319 589.241,400.832 	"/>
	<polygon opacity="0.15" fill="#FFFFFF" points="535.656,384.345 576.875,421.441 589.241,400.832 	"/>
	<polygon opacity="0.15" fill="#FFFFFF" points="535.656,384.345 502.682,400.832 444.976,388.466 
		428.489,400.832 354.295,384.345 280.102,376.101 337.808,371.979 370.783,363.735 432.61,363.735 506.804,376.101 	"/>
	<polygon opacity="0.15" fill="#FFFFFF" points="440.854,376.101 428.489,400.832 354.295,384.345 
		317.199,404.954 280.102,388.466 263.615,371.979 280.102,376.101 337.808,371.979 370.783,363.735 432.61,363.735 
		506.804,376.101 	"/>
	<polygon opacity="0.15" fill="#FFFFFF" points="280.102,376.101 280.102,388.466 226.518,380.223 
		263.615,371.979 	"/>
	<g>
		<polygon opacity="0.3" fill="#00A99D" points="113.948,420.342 137.993,419.534 145.391,427.482 		
			"/>
		<polygon opacity="0.3" fill="#00A99D" points="137.993,419.534 145.391,445.364 145.391,427.482 		
			"/>
	</g>
	<polygon opacity="0.2" fill="#FFFFFF" points="128.466,396.534 130.898,411.425 57.409,417.805 	"/>
	<polyline opacity="0.2" fill="#FFFFFF" points="57.409,417.805 70.114,424.568 128.466,396.534 	"/>
	<polygon opacity="0.2" fill="#FFFFFF" points="128.466,396.534 128.466,396.534 130.898,411.425 
		139.802,384.345 	"/>
	<polygon opacity="0.2" fill="#FFFFFF" points="158.136,384.345 130.898,411.425 128.466,396.534 
		139.802,384.345 	"/>
	<polygon fill="#FFFFFF" points="148.203,392.588 144.081,396.71 152.325,396.71 156.447,394.126 	"/>
	<polygon opacity="0.2" fill="#FFFFFF" points="158.136,384.345 176.489,388.642 127.682,396.71 
		139.802,384.345 	"/>
	<polygon opacity="0.2" fill="#FFFFFF" points="57.409,417.805 41.035,421.441 47.333,415.472 	"/>
	<polygon fill="#00A99D" points="197.18,445.364 145.391,445.364 145.391,427.482 197.18,441.39 	"/>
	<polygon opacity="0.15" fill="#FFFFFF" points="168.812,437.929 148.203,425.563 115.228,425.563 
		131.716,421.441 152.325,421.441 	"/>
	<polygon opacity="0.15" fill="#FFFFFF" points="152.325,421.441 131.716,421.441 148.203,425.563 	"/>
	<polygon opacity="0.15" fill="#FFFFFF" points="263.615,371.979 226.518,380.223 226.518,388.466 
		205.909,380.223 226.518,380.223 	"/>
	<polygon opacity="0.15" fill="#FFFFFF" points="226.518,380.223 226.518,388.466 177.056,396.71 
		140.369,384.345 160.569,384.345 177.056,388.466 205.909,380.223 	"/>
	<polygon opacity="0.15" fill="#FFFFFF" points="337.808,371.979 280.102,388.466 255.371,404.954 
		226.518,388.466 177.056,409.076 177.056,388.466 205.909,380.223 226.518,380.223 263.615,371.979 280.102,376.101 	"/>
	<polygon opacity="0.15" fill="#FFFFFF" points="267.737,404.954 255.371,417.319 243.006,413.198 	"/>
	<polygon opacity="0.15" fill="#FFFFFF" points="288.346,413.198 255.371,417.319 234.762,442.05 
		243.006,413.198 267.737,404.954 	"/>
	<polygon opacity="0.15" fill="#FFFFFF" points="218.274,446.172 214.153,458.538 205.909,458.538 	"/>
	<polygon opacity="0.15" fill="#FFFFFF" points="234.762,442.05 243.006,446.172 218.274,446.172 	"/>
	<polygon opacity="0.15" fill="#FFFFFF" points="296.59,425.563 288.346,413.198 267.737,404.954 
		243.006,413.198 255.371,417.319 267.737,404.954 	"/>
	<polygon opacity="0.15" fill="#FFFFFF" points="243.006,413.198 243.006,446.172 226.518,458.538 
		214.153,458.538 205.909,458.538 218.274,446.172 234.762,442.05 	"/>
	<polygon opacity="0.15" fill="#FFFFFF" points="473.829,396.71 453.22,413.198 440.854,404.954 	"/>
	<polygon opacity="0.15" fill="#FFFFFF" points="428.489,413.198 453.22,413.198 494.438,413.198 
		473.829,396.71 440.854,404.954 	"/>
	<polygon opacity="0.15" fill="#FFFFFF" points="412.001,437.929 453.22,413.198 473.829,396.71 
		440.854,404.954 428.489,413.198 	"/>
	<polygon opacity="0.15" fill="#FFFFFF" points="395.514,442.05 424.367,446.172 412.001,437.929 	"/>
	<polygon opacity="0.15" fill="#FFFFFF" points="387.27,458.538 383.148,450.294 370.783,458.538 	"/>
	<polygon opacity="0.15" fill="#FFFFFF" points="395.514,442.05 387.27,458.538 370.783,458.538 
		383.148,450.294 	"/>
	<polygon opacity="0.15" fill="#FFFFFF" points="424.367,446.172 387.27,458.538 370.783,458.538 
		383.148,450.294 395.514,442.05 412.001,437.929 428.489,413.198 	"/>
</g>
<g>
	
		<linearGradient id="SVGID_10_" gradientUnits="userSpaceOnUse" x1="363.4147" y1="356.1987" x2="466.4612" y2="253.1523" gradientTransform="matrix(1 0 0 -1 -21 515.5)">
		<stop  offset="0" style="stop-color:#000000;stop-opacity:0.25"/>
		<stop  offset="1" style="stop-color:#000000;stop-opacity:0"/>
	</linearGradient>
	<polygon fill="url(#SVGID_10_)" points="394.875,312.934 338.668,256.727 366.771,219.256 342.415,159.301 421.105,181.784 
		439.84,155.554 496.047,211.761 	"/>
	<path fill="#60C6BA" d="M443.587,243.612c0,9.313-7.549,16.862-16.862,16.862h-78.69c-9.313,0-16.862-7.549-16.862-16.862v-78.69
		c0-9.313,7.549-16.862,16.862-16.862h78.69c9.313,0,16.862,7.549,16.862,16.862V243.612z"/>
	<g>
		<path fill="#00A99D" d="M420.646,227.541c-0.077,0.735-0.236,0.875-0.461,1.385c0.641,0.291,1.017,0.476,2.079,0.462v-0.924
			h-0.231c-0.143-0.559-0.244-0.507-0.462-0.923H420.646z M432.891,244.865h0.231c-0.088-0.176-0.135-0.772-0.231-0.925h-0.232
			c-0.786-1.116-2.396-0.149-3.234-0.923h-0.461c0.163-0.429,0.238-0.905,0.23-1.617h-0.693v-0.231
			c-0.797-0.167-1.109,0.655-1.848,0c-0.943-0.252-0.281-0.1-0.693-0.694h-0.231c-0.076-0.231-0.153-0.461-0.23-0.693
			c-0.232,0.077-0.463,0.154-0.694,0.232c-0.279-0.664-0.618-1.07-0.923-1.618h-1.386v-0.461c-0.522-0.073-0.602-0.024-0.924-0.231
			v-0.231h-0.463v-0.231h-1.385v-0.231c-0.386-0.077-0.77-0.154-1.155-0.23v-0.232c-0.232-0.078-0.463-0.155-0.694-0.231
			c-0.077-0.384-0.153-0.77-0.231-1.155h-0.231c-0.665-1.016-0.87-0.216-1.848-0.692c-0.154-0.232-0.308-0.463-0.462-0.694
			c-0.463,0.077-0.924,0.154-1.386,0.231v-0.231c-0.539-0.077-1.078-0.153-1.617-0.231v0.231c-0.385,0.249-0.39,0.303-0.924,0.462
			c-0.077-0.308-0.155-0.616-0.231-0.923c-0.616,0-1.232,0-1.845,0.001v0.23h-0.231c-0.463-0.076-0.924-0.153-1.386-0.23v0.23
			h-0.462v0.231h-0.694c-0.076,0.154-0.153,0.308-0.23,0.462c-0.231,0.077-0.462,0.153-0.693,0.231v0.23h-0.693v0.231
			c-0.559,0.432-0.847,1.034-1.386,1.387c0.077,0.385,0.153,0.77,0.231,1.155h-0.694c-0.197,0.26,0.032,0.036-0.231,0.231
			c0.078,0.154,0.155,0.308,0.231,0.462c0.694-0.154,1.387-0.308,2.079-0.462v-0.694c1.416-0.07,0.81-0.168,1.386-0.924
			c0.19-0.248,0.699-0.398,0.924-0.692h0.462c0.077-0.232,0.154-0.463,0.231-0.694c1.317,0.028,1.882,0.365,3.003,0.462v0.924
			c0.385,0.077,0.77,0.154,1.155,0.231v0.231h1.155c0.077,0.155,0.154,0.308,0.231,0.462h0.462v0.231h0.924
			c0.184,0.113,0.395,0.846,0.462,1.155c0.231,0.077,0.463,0.154,0.693,0.231v0.231h0.693c0.232,0.308,0.463,0.616,0.694,0.923
			c1.001-0.076,2.001-0.153,3.003-0.23v1.386c0.475,0.398,0.546,0.867,0.923,1.386c0.232,0.154,0.463,0.308,0.694,0.462v0.231
			c0.77,0.231,1.54,0.463,2.31,0.693c-0.077,0.462-0.154,0.924-0.231,1.385c-0.654,0.174-0.664,0.414-1.155,0.694
			c0.076,0.23,0.152,0.462,0.23,0.692c1.385-0.153,2.772-0.308,4.158-0.462v-0.231c1.288-0.382,3.412,0.242,4.157,0v-0.231h0.462
			v-0.231C432.45,245.072,432.529,245.278,432.891,244.865z M403.555,206.974c2.525,0.069,1.375,1.225,2.309,2.54h0.231
			c0.077,0.154,0.153,0.309,0.23,0.462c0.027,0.016,0.826,0.188,0.924,0.231c0.078,1.078,0.155,2.156,0.232,3.234h-0.232
			c-0.181,0.522-0.308,2.085,0,2.541h0.232c0.198,0.26-0.031,0.035,0.231,0.23c0.194-0.429,0.355-0.603,0.462-1.155h0.923
			c-0.031,1.009-0.29,1.683-0.923,2.079c0.008,1.267,0.015,1.535,0.693,2.079v0.231c0.634,0.394,0.279-0.345,0.924,0.462h0.231
			v0.923c0.154,0.077,0.308,0.154,0.462,0.231v0.462h0.231v1.155c0.231,0.154,0.462,0.307,0.693,0.461
			c0.154,0.463,0.308,0.925,0.462,1.387c0.231,0.077,0.462,0.154,0.693,0.231c0.348,0.286,0.126,0.56,0.693,0.923v0.231
			c0.484-0.238,0.209-0.164,0.693,0c0.077-0.308,0.154-0.616,0.231-0.924c-0.001-0.006-0.34-0.102-0.231-0.462h0.231v-0.462
			c0.155-0.077,0.308-0.154,0.462-0.231v-0.694h0.231v-2.078h0.231v-0.924h0.231v-0.231h-0.231v-1.385
			c-0.154-0.078-0.308-0.155-0.462-0.232c-0.077-0.769-0.154-1.54-0.231-2.309c-0.153-0.077-0.308-0.154-0.462-0.231v-0.693
			c-0.154-0.077-0.308-0.154-0.462-0.231c0.077-0.385,0.154-0.77,0.231-1.155h-0.231v-0.462c-0.231-0.155-0.462-0.309-0.692-0.462
			c0.077-0.385,0.153-0.77,0.23-1.155h-0.23v-0.694h-0.232v-0.461h-0.231c-0.077-0.462-0.154-0.925-0.231-1.386h-0.231v-2.079h-0.23
			v-0.694h-0.231c-0.413-0.478-0.471-0.144-0.693-0.923c0.258-0.262,0.099,0.002,0.231-0.462c0.231-0.077,0.462-0.154,0.693-0.231
			c-0.077-0.616-0.154-1.232-0.231-1.848h0.462c0.154-0.77,0.308-1.54,0.462-2.31h0.231c-0.077-0.23-0.154-0.461-0.231-0.692
			c0.652-0.174,0.663-0.414,1.155-0.694c-0.055-0.545-0.097-0.571-0.231-0.924c1.165-0.431,1.378-0.199,1.617-1.617
			c0.231,0.077,0.462,0.154,0.693,0.231c0.462-0.386,0.924-0.771,1.386-1.155v-0.694h0.924c0.033-1.051,0.279-1.102,0.462-1.848
			c0.308,0.077,0.616,0.153,0.923,0.231c0.337-0.419,1.104-0.925,1.618-1.155h0.693v-0.23c0.475-0.411,0.144-0.485,0.924-0.694
			c0.259-0.938,0.563-0.502,0.693-1.617c0.54-0.132,0.863-0.329,1.155-0.693h0.231c0.135-0.356-0.572-1.185-0.692-1.617h1.155
			v-0.462h0.462c-0.176-0.696-0.604-1.086-1.155-1.387v-0.23c0.635,0.195,0.939,0.055,1.617-0.231
			c0.077,0.231,0.154,0.461,0.232,0.693h0.461v0.231c0.309,0.12,1.045-0.547,1.155-0.692h0.231v-0.231h-0.692v-0.693
			c-0.26-0.197-0.036,0.032-0.231-0.231c-0.572-0.109-0.847-0.224-1.617-0.23v-0.694c0.753-0.068,1.249-0.252,1.617-0.692h0.231
			c-0.077-0.231-0.154-0.463-0.231-0.693h-0.231c0.077-0.385,0.154-0.77,0.231-1.155c-0.462-0.098-1.894-0.635-2.079-0.924v-0.462
			c-0.161-0.374-0.364-0.488-0.693-0.692v-0.231c0.616-0.077,1.232-0.154,1.848-0.231c-0.192-0.919-0.674-1.253-1.387-1.617v-0.231
			h0.694v-0.462c-0.668-0.168-0.766-0.248-0.925-0.924c-0.627-0.177-0.525-0.056-0.692-0.693h0.692
			c-0.077-0.539-0.153-1.078-0.231-1.617h0.462c0.154-0.693,0.308-1.386,0.462-2.079h0.231c-0.077-0.539-0.154-1.078-0.231-1.617
			c0.385-0.077,0.769-0.155,1.155-0.232c0.077-0.153,0.154-0.307,0.231-0.461c0.385,0.077,0.769,0.154,1.155,0.231v-0.693h0.231
			c0.198-0.26-0.031-0.035,0.232-0.23c0.198,0.259-0.031,0.035,0.231,0.23c-0.077,0.385-0.155,0.77-0.231,1.155
			c-0.877,0.216-0.731,0.509-1.155,1.155h-0.231c-0.077,0.231-0.154,0.461-0.231,0.692h0.462v0.232
			c-0.385,0.307-0.769,0.615-1.155,0.923c0.065,0.345,0.481,1.055,0.462,1.155c-0.153,0.077-0.308,0.154-0.462,0.231
			c0.077,0.231,0.154,0.463,0.232,0.693h0.231c-0.077,0.309-0.154,0.616-0.231,0.924h0.231v0.231h0.693v-0.462h0.923v1.386
			c0.536-0.286,1.089-0.569,1.848-0.694c-0.078-0.384-0.154-0.769-0.231-1.154h0.231v-0.462h0.231
			c0.205-0.323,0.162-0.402,0.231-0.925h-0.462c0.133-1.007,0.349-0.616,0.462-1.617c-1.286-0.321-1.002-1.12-0.924-2.31
			c0.526,0.234,1.256,0.506,1.618,0.923h1.155c0.318-0.154,1.073-1.817,1.155-2.309c0.231,0.076,0.462,0.153,0.693,0.23
			c0.231-0.77,0.462-1.54,0.692-2.31c-0.077-0.462-0.154-0.924-0.23-1.386h-0.694v-0.692h0.462v-0.462
			c0.385-0.308,0.771-0.615,1.155-0.924v-0.462c0.231-0.154,0.461-0.308,0.692-0.462v-0.231h0.924
			c0.154-0.232,0.308-0.462,0.462-0.693l0.231,0.231c0.61,0.01,0.791-0.11,1.155-0.231c0.077-0.232,0.153-0.463,0.231-0.694
			c1.125-0.051,0.901-0.146,1.848,0v0.462h0.692v-0.231h0.231c0.197-0.515-0.382-0.574-0.462-0.924h0.231
			c0.151-0.347,0.186-0.377,0.231-0.923c0.028,0.006,0.057,0.011,0.085,0.017c-2.69-5.74-8.502-9.725-15.261-9.725h-78.69
			c-9.313,0-16.862,7.549-16.862,16.862v61.411c0.458,0.918,1.198,2.159,1.477,2.364h0.462v0.23
			c0.308,0.232,0.616,0.463,0.924,0.694v0.923c0.308,0.154,0.616,0.308,0.925,0.462v0.462c0.153,0.078,0.307,0.154,0.461,0.231
			v0.693c0.231,0.154,0.462,0.308,0.693,0.462v0.692h0.231v0.463h0.231v0.462c0.154,0.076,0.308,0.153,0.462,0.23v0.462
			c0.231,0.155,0.462,0.308,0.693,0.462v0.462c0.153,0.077,0.307,0.154,0.462,0.231c0.076,0.385,0.153,0.77,0.23,1.155
			c0.154,0.077,0.308,0.153,0.462,0.231v1.617c0.155,0.077,0.308,0.154,0.462,0.231c0.205,0.361,0.433,1.442,0.232,2.079
			c-0.26,0.817-0.784,0.958-0.925,2.079h0.462c-0.154,0.597-0.237,0.663-0.693,0.924c0.154,0.692,0.308,1.385,0.462,2.079
			c0.232,0.077,0.462,0.153,0.694,0.231c0.202,1.043,0.544,1.266,1.155,1.848c0.076,0.154,0.153,0.308,0.23,0.462h0.462
			c0.077,0.154,0.155,0.308,0.232,0.462h0.461v0.23h0.693c0.32,0.221,0.011,0.578,0.232,0.924h0.23
			c0.077,0.154,0.154,0.308,0.231,0.462h0.462c0.077,0.154,0.153,0.308,0.231,0.461h0.461c0.206,0.16,0.185,0.48,0.462,0.694v0.462
			c0.937,0.271,0.461,0.468,1.155,0.924v0.462h1.847v0.231h0.462v0.231h0.924c0.385,0.461,0.77,0.924,1.155,1.386
			c0.308,0.077,0.616,0.154,0.924,0.231v0.23c0.231,0.077,0.462,0.155,0.693,0.232c0.077,0.155,0.154,0.308,0.231,0.462h0.694v0.23
			h0.461c0.155,0.232,0.309,0.463,0.463,0.694c0.692,0.231,1.386,0.461,2.078,0.693h1.155v0.23h0.462v0.231
			c0.385-0.077,0.769-0.154,1.155-0.231c0.077,0.231,0.154,0.462,0.231,0.693c0.995,0.053,0.783,0.142,1.386,0.462v0.134h29.595
			c0.209-0.462-0.014-0.922,0.199-1.524h0.232v-0.462h0.231c-0.153-0.308-0.308-0.617-0.462-0.925h0.232v-0.692
			c0.154-0.077,0.308-0.155,0.462-0.232c0.077-0.769,0.154-1.539,0.231-2.309h-0.231c-0.021-0.975,0.008-1.068-0.924-1.155
			c0.233-0.506,0.516-1.052,0.924-1.387v-0.461h0.231c0.266,0.449-0.154,1.199-0.231,1.386c0.308,0.076,0.616,0.153,0.924,0.23
			v0.462h0.461c-0.076-0.539-0.153-1.079-0.23-1.618c0.3-1.321,0.898-2.527,0.924-4.157c0.905-0.417-0.397-0.282,0-1.617h0.231
			c0.076-0.538,0.153-1.078,0.23-1.617c0.153-0.077,0.308-0.154,0.462-0.231v-0.692h0.231v-0.462h0.231
			c0.211-0.576,0.064-1.59,0.231-2.079c-0.154-0.077-0.308-0.154-0.462-0.231c-0.077-0.231-0.155-0.462-0.231-0.692h-0.693v-0.232
			h-0.462v-0.23c-0.416-0.145-2.565,0.345-2.772,0.462c-0.231,0.307-0.462,0.615-0.693,0.923c-0.463,0.077-0.924,0.154-1.386,0.231
			c-0.077,0.154-0.154,0.308-0.231,0.462h-0.461v0.23h-1.387v0.232c-0.231,0.076-0.462,0.153-0.692,0.23
			c-0.232,1.156-0.463,2.31-0.694,3.465h-0.231v1.155c-0.231,0.153-0.461,0.307-0.693,0.461v0.462h-0.231v1.848
			c-0.231,0.077-0.462,0.153-0.693,0.23c-0.417,0.325-1.142,1.54-1.386,2.079h-0.924v0.231c-0.301-0.241-0.342-0.472-0.693-0.692
			v-0.231c-0.462,0.154-0.924,0.308-1.386,0.461v-0.23c-1.178,0.144-1.171,0.807-1.848,1.385v0.231c-0.674-0.332-0.92-0.014-1.848,0
			v0.462c-1.08-0.19-1.447-0.026-2.772,0c-0.152-0.693-0.44-1.048-0.693-1.618c-0.305-0.127-0.551-0.082-0.924-0.231v-0.23h-0.693
			v-0.231c-0.539,0.077-1.078,0.153-1.617,0.231c-0.143-1.963-1.363-2.269-1.386-4.389h-0.693c-0.247-0.534-0.426-0.867-0.925-1.155
			v-0.462h-0.461v-0.462h-0.462c-0.077-0.307-0.154-0.615-0.231-0.923c-0.154-0.077-0.308-0.153-0.462-0.231
			c0.077-0.308,0.153-0.615,0.231-0.923h-0.231v-0.462c-0.231-0.155-0.463-0.308-0.693-0.462v-0.924h-0.231v-0.231
			c-0.296,0.19-0.253,0.196-0.462,0.462h-0.23c0.077-0.463,0.154-0.925,0.23-1.386h0.231c-0.077-0.77-0.154-1.541-0.231-2.31h0.231
			c0.154-0.694,0.308-1.387,0.462-2.079h-0.231v-0.924h-0.231v-1.617c-0.155-0.076-0.308-0.153-0.462-0.23
			c-0.225-0.567,0.188-1.104,0.23-1.386c-0.153-0.924-0.307-1.848-0.462-2.771h0.232c-0.077-0.464-0.154-0.925-0.232-1.387
			c0.155-0.077,0.309-0.154,0.462-0.231c0.31-0.406,0.386-0.722,0.462-1.386h0.923c0.218-0.935,0.653-1.149,0.693-2.31
			c-0.461-0.138-0.199,0.032-0.462-0.231h-0.231c0.077-0.23,0.153-0.461,0.231-0.692h0.231c-0.077-0.231-0.154-0.462-0.231-0.693
			h-0.462c-0.073-0.525-0.032-0.595-0.232-0.924h-0.23v-0.693h-0.231v-0.924h-0.231c0.077-0.616,0.153-1.232,0.231-1.848h-0.462
			c0.139-0.461-0.032-0.199,0.231-0.462v-0.231c0.231,0.077,0.462,0.154,0.692,0.231c0.196-0.512,0.248-1.258,0.232-2.079
			c1.05-0.148,0.577-0.202,1.155-0.693v-0.23h0.924c0.076-0.154,0.153-0.308,0.23-0.462h0.693v-0.231h0.231
			c-0.077-0.309-0.153-0.616-0.231-0.924h0.693c0.139-0.461-0.032-0.199,0.231-0.462v-0.231c0.462,0.077,0.924,0.154,1.386,0.231
			v-0.231c0.307-0.231,0.616-0.462,0.924-0.694v0.232h0.23c0.026-0.579-0.071-1.1,0.231-1.387c0.232-0.077,0.462-0.154,0.694-0.231
			v-1.385c0.23,0.077,0.461,0.154,0.692,0.231v0.231h0.693v0.231h0.462c0.077-0.153,0.154-0.308,0.231-0.462
			c0.462-0.154,0.924-0.308,1.386-0.461v-0.694c0.123,0.062,0.462,0.462,0.462,0.462c0.782,0.313,1.071-0.442,1.155-0.462h0.231
			c0.38,0.002,0.263,0.369,0.462,0.462c0.463,0.077,0.925,0.154,1.386,0.231v0.23c0.958-0.131,0.805-0.482,1.617-0.693v0.923
			c0.596,0.153,0.663,0.237,0.923,0.694c1.053-0.06,0.987-0.328,1.618-0.694v0.462h-0.462c-0.138,0.461,0.032,0.199-0.231,0.462
			v0.692h0.231c0.218,0.22,1.228,0.687,1.848,0.462c0.077-0.154,0.154-0.308,0.231-0.462c0.307,0.077,0.615,0.154,0.923,0.231
			c-0.148-0.547-0.064-0.433-0.461-0.694c0.031-0.912,0.112-1.058,0.692-1.385v-0.23c0.86,0.237,1.029,0.728,2.079,0.923v0.692
			c0.26,0.197,0.036-0.031,0.231,0.231h1.155v0.924h0.694c0.197-0.26-0.031-0.036,0.23-0.23c-0.077-0.386-0.153-0.771-0.23-1.155
			c-0.607-0.029-0.784-0.092-1.155-0.231c0.094-0.907,0.342-1.014,1.155-1.155c-0.149-0.548-0.065-0.434-0.462-0.694
			c-0.184-0.123,0.075-0.346-0.231-0.231v0.231c-0.154,0.077-0.308,0.154-0.462,0.231c-0.19-0.299-0.158-0.275-0.462-0.462v-0.462
			c-0.606,0.027-0.784,0.091-1.155,0.231v-0.462c-0.461-0.138-0.199,0.032-0.462-0.231c-0.259-0.197-0.036,0.032-0.23-0.23
			c0.603-0.186,1.223-0.017,2.31,0c0.077-0.232,0.154-0.463,0.231-0.694l1.617-0.462v0.231h0.693
			c0.078,0.154,0.154,0.308,0.231,0.462h0.462v0.231c0.308-0.077,0.616-0.154,0.923-0.231v-0.924h0.462
			c0.076,0.461,0.153,0.924,0.23,1.386h0.925v-0.462c0.307-0.077,0.616-0.153,0.923-0.231v-0.692h0.231
			c0.154,0.308,0.308,0.616,0.462,0.924c0.782-0.085,0.745-0.001,0.924-0.693c0.463,0.077,0.925,0.154,1.387,0.231
			c-0.139,0.461,0.031,0.199-0.232,0.462c0.238,0.874,0.64,1.023,1.618,1.155h0.693c0.154,0.385,0.308,0.77,0.462,1.155h0.692
			c0.155,0.231,0.308,0.461,0.462,0.692c0.308-0.077,0.616-0.154,0.924-0.231v0.231C402.684,208.17,403.228,207.572,403.555,206.974
			z M436.122,241.631V241.4h-0.461C435.923,241.658,435.659,241.498,436.122,241.631z M407.249,238.396h0.462
			c-0.066,0.866-0.164,1.193-0.924,1.386v0.232c0.347,0.164,1.308-0.392,1.848-0.462c0.077-0.616,0.154-1.233,0.231-1.848
			c-0.462-0.077-0.924-0.154-1.385-0.231C407.346,237.825,407.296,237.848,407.249,238.396z M442.595,246.714v-0.232
			c-0.946-0.15-0.629,0.299-0.925,0.463h-0.461v0.231c-0.778,0.285-1.478-0.27-1.848,0h-0.231v-0.231
			c-0.307-0.197-0.451-0.188-0.694-0.463h-1.617c0.415,0.632,0.911,0.463,1.385,0.924c0.344,0.464-0.332,0.95,0,1.848h0.231v0.462
			h0.231c0.077,0.231,0.154,0.463,0.231,0.693h0.462v0.924c-0.299,0.19-0.275,0.158-0.462,0.461
			c-0.232-0.076-0.463-0.153-0.694-0.23v-0.231h-0.461v-0.231h-1.849v-0.231c-0.385,0.077-0.769,0.154-1.155,0.231
			c-0.077-0.154-0.154-0.308-0.23-0.462h-0.694v-0.231h-0.231v0.231c-0.308,0.077-0.615,0.154-0.924,0.231
			c0.028,0.607,0.092,0.785,0.232,1.155c0.319,0.129,0.518,0.084,0.923,0.231v0.231c0.97,0.31,1.869-0.307,2.31,0h4.919
			c1.102-1.774,1.884-3.761,2.265-5.893C443.07,246.634,442.833,246.674,442.595,246.714z M425.959,251.793
			c-0.077-0.153-0.153-0.307-0.231-0.461h-2.079v-0.462c-0.461-0.138-0.199,0.032-0.461-0.231c-0.68,0.019-1.507,0.131-1.848,0.462
			c-0.231,0.077-0.461,0.154-0.693,0.231c-0.076,0.231-0.153,0.461-0.23,0.692h0.23v0.231h1.155
			c0.077,0.231,0.154,0.463,0.231,0.693c0.23,0.154,0.462,0.307,0.692,0.462v0.231c0.539,0.077,1.078,0.153,1.617,0.231v0.23
			c0.883-0.022,0.964,0.047,1.155-0.692h1.617v-0.231h0.231c-0.077-0.308-0.154-0.616-0.231-0.924
			C426.624,252.139,426.296,252.058,425.959,251.793z"/>
	</g>
	
		<linearGradient id="SVGID_11_" gradientUnits="userSpaceOnUse" x1="406.4088" y1="341.0598" x2="454.6342" y2="292.8342" gradientTransform="matrix(1 0 0 -1 -21 515.5)">
		<stop  offset="0" style="stop-color:#000000;stop-opacity:0.25"/>
		<stop  offset="0.7305" style="stop-color:#000000;stop-opacity:0.0245"/>
		<stop  offset="0.9282" style="stop-color:#000000;stop-opacity:0"/>
	</linearGradient>
	<polygon fill="url(#SVGID_11_)" points="421.681,234.619 385.615,197.522 397.362,162.487 442.29,209.888 	"/>
	<path fill="#9BEADF" d="M399.068,174.623h-0.169c0.508-1.435,0.799-2.971,0.799-4.58c0-7.588-6.151-13.739-13.739-13.739
		s-13.739,6.151-13.739,13.739c0,1.608,0.291,3.145,0.799,4.58h-0.169l0.504,0.88c0.395,0.911,0.892,1.764,1.466,2.56l11.14,19.459
		l11.14-19.459c0.574-0.796,1.071-1.649,1.466-2.56L399.068,174.623z M381.378,170.043c0-2.529,2.051-4.58,4.58-4.58
		s4.58,2.05,4.58,4.58c0,2.529-2.051,4.58-4.58,4.58S381.378,172.572,381.378,170.043z"/>
</g>
</svg>
