<?xml version="1.0" encoding="utf-8"?>
<!-- Generator: Adobe Illustrator 17.0.0, SVG Export Plug-In . SVG Version: 6.00 Build 0)  -->
<!DOCTYPE svg PUBLIC "-//W3C//DTD SVG 1.1//EN" "http://www.w3.org/Graphics/SVG/1.1/DTD/svg11.dtd">
<svg version="1.1" id="Layer_1" xmlns="http://www.w3.org/2000/svg" xmlns:xlink="http://www.w3.org/1999/xlink" x="0px" y="0px"
	 width="512px" height="512px" viewBox="0 0 512 512" enable-background="new 0 0 512 512" xml:space="preserve">
<g>
	<path fill="#FFFFFF" d="M337.714,62.522C311.854,51.585,284.362,46.039,256,46.039s-55.854,5.546-81.714,16.483
		c-24.997,10.572-47.456,25.717-66.751,45.013s-34.439,41.754-45.013,66.751C51.585,200.146,46.039,227.638,46.039,256
		s5.546,55.854,16.482,81.713c10.572,24.998,25.718,47.456,45.013,66.752c19.296,19.295,41.754,34.439,66.751,45.013
		c7.139,3.019,14.405,5.612,21.777,7.807v-38.198c0-19.856,6.673-34.343,20.02-43.457c-8.464-0.813-16.235-1.953-23.315-3.418
		s-14.567-3.581-22.461-6.348c-7.894-2.767-14.974-6.062-21.24-9.888c-6.267-3.825-12.288-8.789-18.066-14.893
		c-5.778-6.104-10.62-13.021-14.526-20.752s-6.999-17.009-9.277-27.832s-3.418-22.746-3.418-35.767
		c0-25.228,8.22-46.712,24.658-64.453c-7.487-19.368-6.673-40.608,2.441-63.721c0.488-0.163,1.302-0.325,2.441-0.488
		c1.14-0.163,3.703-0.081,7.69,0.244c3.987,0.325,8.301,1.18,12.939,2.563s10.823,3.987,18.555,7.812
		c7.731,3.825,15.91,8.667,24.536,14.526c19.043-5.371,39.062-8.057,60.059-8.057c20.833,0,40.935,2.686,60.303,8.057
		c13.672-9.277,26.001-15.95,36.987-20.02s18.596-5.859,22.827-5.371l6.104,0.732c9.114,22.949,9.929,44.189,2.441,63.721
		c16.439,17.741,24.658,39.226,24.658,64.453c0,13.021-1.14,24.943-3.418,35.767c-2.278,10.823-5.371,20.101-9.277,27.832
		s-8.748,14.648-14.526,20.752c-5.778,6.104-11.8,11.067-18.066,14.893c-6.267,3.825-13.347,7.121-21.24,9.888
		c-7.894,2.767-15.381,4.883-22.461,6.348s-14.852,2.604-23.315,3.418c13.509,9.277,20.264,23.763,20.264,43.457v37.468
		c6.536-2.033,12.985-4.391,19.336-7.076c24.998-10.573,47.456-25.718,66.752-45.013c19.295-19.295,34.439-41.754,45.013-66.751
		c10.938-25.859,16.483-53.352,16.483-81.714s-5.546-55.854-16.482-81.714c-10.573-24.997-25.718-47.456-45.013-66.751
		C385.17,88.24,362.712,73.096,337.714,62.522z"/>
	<path fill="#FFFFFF" d="M0,0v512h512V0H0z M256,506C117.929,506,6,394.071,6,256S117.929,6,256,6s250,111.929,250,250
		S394.071,506,256,506z"/>
</g>
</svg>
