<?xml version="1.0" encoding="utf-8"?>
<!-- Generator: Adobe Illustrator 17.0.0, SVG Export Plug-In . SVG Version: 6.00 Build 0)  -->
<!DOCTYPE svg PUBLIC "-//W3C//DTD SVG 1.1//EN" "http://www.w3.org/Graphics/SVG/1.1/DTD/svg11.dtd">
<svg version="1.1" id="Layer_1" xmlns="http://www.w3.org/2000/svg" xmlns:xlink="http://www.w3.org/1999/xlink" x="0px" y="0px"
	 width="512px" height="512px" viewBox="0 0 512 512" enable-background="new 0 0 512 512" xml:space="preserve">
<g>
	<path fill="#FFFFFF" d="M78.112,409h-0.461c-1.241,8-2.974,19.269-4.246,26.199L68.836,460h17.461l-4.246-24.862
		C80.839,427.888,79.291,417,78.112,409z"/>
	<path fill="#FFFFFF" d="M370.488,434.902c-7.573,0-10.792,11.098-11.021,20.098h21.016
		C380.591,443,377.125,434.902,370.488,434.902z"/>
	<path fill="#FFFFFF" d="M297.969,436.868c-3.969,0-7.174,4.309-8.324,8.937c-0.4,1.456-0.645,3.723-0.645,5.286v23.499
		c0,2.1,0.247,4.063,0.692,5.379c2.099,7.038,5.588,8.77,8.438,8.77c8.094,0,11.325-10.257,11.325-26.658
		C309.455,447.151,305.971,436.868,297.969,436.868z"/>
	<path fill="#FFFFFF" d="M151.489,436.868c-8.415,0-11.511,12.124-11.511,26.304c0,16.293,4.414,25.567,11.22,25.567
		c3.112,0,6.916-1.595,8.864-8.433c0.475-1.363,0.939-3.187,0.939-5.318v-22.21c0-1.548-0.218-3.358-0.525-5.014
		C159.664,442.033,156.395,436.868,151.489,436.868z"/>
	<path fill="#FFFFFF" d="M224.715,435.149c-8.831,0-10.686,15.463-10.686,27.311c0,14.302,2.33,27.54,10.852,27.54h0.185
		c7.986,0,9.964-15.077,9.964-27.54C235.029,450.612,233.052,435.149,224.715,435.149z"/>
	<path fill="#FFFFFF" d="M449.154,11h-0.106c-11.19,0-20.234,9.555-20.234,21.313c0,11.758,9.044,21.225,20.341,21.225
		c11.189,0.122,20.126-9.511,20.126-21.269C469.28,20.511,460.343,11,449.154,11z M455.147,47c-0.675-1-1.257-3.517-1.824-7.227
		c-0.552-3.417-2.468-4.773-5.979-4.773H444v12h-5V18.922c3-0.337,4.902-0.798,8.641-0.798c4.522,0,7.424,0.92,9.232,2.284
		c1.579,1.241,2.51,3.141,2.51,5.871c0,3.618-2.383,5.977-5.383,6.775v0.215c2,0.461,4.06,2.62,4.629,6.819
		c0.675,4.414,1.255,5.912,1.716,6.912H455.147z"/>
	<path fill="#FFFFFF" d="M447.489,21.972c-1.487,0-2.489,0-3.489,0.108V31h0.417h3.035c3.742,0,6.702-1.118,6.702-4.399
		C454.155,24.134,452.241,21.972,447.489,21.972z"/>
	<path fill="#FFFFFF" d="M0,0v512h512V0H0z M38,6h133.586L38,326.443V6z M218.752,123.876L304.023,326h-55.871l-25.508-64h-62.432
		L218.752,123.876z M93.672,505l-5.396-28H66.555l-5.518,28H40.65l25.43-116h24.985l23.1,116H93.672z M164.107,505l-1.18-10h-0.429
		c-3.035,6-9.641,11.018-17.536,11.018c-17.306,0-25.889-19.108-25.889-43.221c0-29.382,12.798-43.603,26.747-43.603
		c7.297,0,12.018,3.807,14.395,8.807H161v-43h20v95.57c0,7.539,0.872,16.43,1.179,24.43H164.107z M224.837,506h-0.169
		c-19.283,0-31.377-15.482-31.377-43.194c0-30.245,15.527-43.688,31.868-43.688c19.023,0,30.948,16.236,30.948,43.198
		C256.106,496.958,237.422,506,224.837,506z M303.208,506.216c-7.297,0-12.155-3.216-16.539-11.216h-0.442l-1.164,10h-17.965
		c0.307-7,0.902-16.89,0.902-24.43v-95.128L267.801,385H289v44h0.061c4.122-6,9.611-10.024,17.581-10.024
		c15.773,0,23.698,18.114,23.698,41.567C330.341,490.175,318.522,506.216,303.208,506.216z M399.118,469.455l-39.728-0.119
		c0.246,15.22,8.248,20.173,18.18,20.173c6.298,0,11.695-1.398,15.681-2.897l2.82,15.053c-5.55,2.389-14.119,3.892-22.335,3.892
		c-22.456,0-34.719-15.346-34.719-41.555c0-28.128,14.225-45.021,32.803-45.021c17.95,0,27.897,14.93,27.897,39.302
		C399.717,463.862,399.487,467.005,399.118,469.455z M400,326.443L265.887,6H400V326.443z M449.047,57.919
		c-14.119,0-25.538-11.326-25.538-25.567C423.51,18.341,434.929,7,449.047,7h0.106c13.995,0,25.185,11.341,25.185,25.352
		C474.339,46.593,463.149,57.919,449.047,57.919z"/>
</g>
</svg>
