<?xml version="1.0" encoding="utf-8"?>
<!-- Generator: Adobe Illustrator 17.0.0, SVG Export Plug-In . SVG Version: 6.00 Build 0)  -->
<!DOCTYPE svg PUBLIC "-//W3C//DTD SVG 1.1//EN" "http://www.w3.org/Graphics/SVG/1.1/DTD/svg11.dtd">
<svg version="1.1" id="Layer_1" xmlns="http://www.w3.org/2000/svg" xmlns:xlink="http://www.w3.org/1999/xlink" x="0px" y="0px"
	 width="250px" height="250px" viewBox="0 0 250 250" enable-background="new 0 0 250 250" xml:space="preserve">
<g>
	<g>
		<polygon fill="#E0CAB1" points="145.819,132.924 160.624,139.269 154.279,124.465 		"/>
		<polygon opacity="0.4" fill="#FFFFFF" points="154.279,124.465 160.624,139.269 150.049,128.695 		"/>
	</g>
	<g>
		<polygon fill="#E0CAB1" points="133.129,145.614 147.934,151.959 141.589,137.154 		"/>
		<polygon opacity="0.4" fill="#FFFFFF" points="141.589,137.154 147.934,151.959 137.359,141.384 		"/>
	</g>
	<g>
		<polygon fill="#E0CAB1" points="120.44,158.304 135.244,164.649 128.899,149.844 		"/>
		<polygon opacity="0.4" fill="#FFFFFF" points="128.899,149.844 135.244,164.649 124.669,154.074 		"/>
	</g>
	<g>
		<polygon fill="#E0CAB1" points="158.509,120.235 173.313,126.58 166.968,111.775 		"/>
		<polygon opacity="0.4" fill="#FFFFFF" points="166.968,111.775 173.313,126.58 162.739,116.005 		"/>
	</g>
	<g>
		<polygon fill="#E0CAB1" points="171.198,107.545 186.003,113.89 179.658,99.085 		"/>
		<polygon opacity="0.4" fill="#FFFFFF" points="179.658,99.085 186.003,113.89 175.428,103.315 		"/>
	</g>
	<g>
		<polygon fill="#E0CAB1" points="183.888,94.855 198.693,101.2 192.348,86.396 		"/>
		<polygon opacity="0.4" fill="#FFFFFF" points="192.348,86.396 198.693,101.2 188.118,90.625 		"/>
	</g>
	<g>
		<polygon fill="#E0CAB1" points="196.578,82.166 211.382,88.51 205.038,73.706 		"/>
		<polygon opacity="0.4" fill="#FFFFFF" points="205.038,73.706 211.382,88.51 200.808,77.936 		"/>
	</g>
	<g>
		<polygon fill="#E0CAB1" points="209.267,69.476 224.072,75.821 217.727,61.016 		"/>
		<polygon opacity="0.4" fill="#FFFFFF" points="217.727,61.016 224.072,75.821 213.497,65.246 		"/>
	</g>
</g>
<polygon fill="#09B39C" points="203.135,48 188.18,48 185.189,62.955 92.468,128.757 65.55,128.757 44.613,146.703 26.665,140.721 
	8.718,146.703 -0.252,146.703 -0.252,206.523 44.613,206.523 119.387,206.523 119.387,167.64 224.072,62.955 "/>
<g opacity="0.2">
	
		<rect x="178.877" y="141.758" transform="matrix(0.8874 -0.461 0.461 0.8874 -47.4609 101.1624)" fill="#736357" width="8.973" height="11.964"/>
	<polygon fill="#736357" points="236.293,110.134 189.896,137.606 195.411,148.223 244.566,126.059 	"/>
</g>
<g>
	<g>
		<polygon fill="#39B54A" points="101.441,185.586 107.423,170.631 113.405,185.586 		"/>
		<polygon opacity="0.4" fill="#FFFFFF" points="113.405,185.586 107.423,170.631 107.423,185.586 		"/>
	</g>
	<g>
		<polygon fill="#39B54A" points="119.387,185.586 125.369,170.631 131.351,185.586 		"/>
		<polygon opacity="0.4" fill="#FFFFFF" points="131.351,185.586 125.369,170.631 125.369,185.586 		"/>
	</g>
	<g>
		<polygon fill="#E0CAB1" points="155.279,185.586 161.261,170.631 167.243,185.586 		"/>
		<polygon opacity="0.4" fill="#FFFFFF" points="167.243,185.586 161.261,170.631 161.261,185.586 		"/>
	</g>
	<g>
		<polygon fill="#E0CAB1" points="173.225,185.586 179.207,170.631 185.189,185.586 		"/>
		<polygon opacity="0.4" fill="#FFFFFF" points="185.189,185.586 179.207,170.631 179.207,185.586 		"/>
	</g>
	<g>
		<polygon fill="#E0CAB1" points="191.171,185.586 197.153,170.631 203.135,185.586 		"/>
		<polygon opacity="0.4" fill="#FFFFFF" points="203.135,185.586 197.153,170.631 197.153,185.586 		"/>
	</g>
	<g>
		<polygon fill="#E0CAB1" points="209.117,185.586 215.099,170.631 221.081,185.586 		"/>
		<polygon opacity="0.4" fill="#FFFFFF" points="221.081,185.586 215.099,170.631 215.099,185.586 		"/>
	</g>
	<g>
		<polygon fill="#E0CAB1" points="227.063,185.586 233.045,170.631 239.027,185.586 		"/>
		<polygon opacity="0.4" fill="#FFFFFF" points="239.027,185.586 233.045,170.631 233.045,185.586 		"/>
	</g>
</g>
<polygon opacity="0.2" fill="#FFFFFF" points="92.468,128.757 107.423,146.703 185.189,62.955 "/>
<polyline opacity="0.2" fill="#FFFFFF" points="185.189,62.955 179.207,83.892 92.468,128.757 "/>
<polygon opacity="0.2" fill="#FFFFFF" points="92.468,128.757 92.468,128.757 107.423,146.703 65.55,128.757 "/>
<polygon opacity="0.2" fill="#FFFFFF" points="44.613,146.703 107.423,146.703 92.468,128.757 65.55,128.757 44.613,146.703 "/>
<polygon opacity="0.2" fill="#FFFFFF" points="188.18,48 224.072,62.955 203.135,48 "/>
<polygon fill="#FFFFFF" points="71.532,146.703 83.495,140.721 95.459,146.703 80.505,155.676 "/>
<g>
	<polygon fill="#E0CAB1" points="83.495,179.604 95.459,167.64 107.423,167.64 113.405,167.64 134.344,167.64 152.288,179.604 
		248,179.604 236.036,188.577 188.18,197.55 158.27,206.523 83.495,206.523 	"/>
	<polygon opacity="0.3" fill="#FFFFFF" points="134.342,167.64 95.459,167.64 83.495,179.604 	"/>
	<polygon opacity="0.3" fill="#FFFFFF" points="95.459,167.64 83.495,206.523 83.495,179.604 	"/>
</g>
<polygon opacity="0.2" fill="#FFFFFF" points="44.613,146.703 44.613,158.667 92.468,128.757 65.55,128.757 "/>
<polygon opacity="0.2" fill="#FFFFFF" points="185.189,62.955 203.135,48 188.18,48 "/>
<polygon opacity="0.2" fill="#FFFFFF" points="-0.252,146.703 11.712,170.631 26.667,140.721 8.721,146.703 "/>
<polyline opacity="0.2" fill="#FFFFFF" points="8.718,146.703 20.685,152.685 26.665,140.721 "/>
<polygon opacity="0.2" fill="#FFFFFF" points="44.613,146.703 44.613,158.667 17.694,143.712 26.667,140.721 "/>
<polygon fill="#E0CAB1" points="-0.252,206.523 83.495,206.523 83.495,179.604 -0.252,200.541 "/>
<polygon opacity="0.1" fill="#534741" points="236.036,188.577 161.261,194.559 119.387,206.523 158.27,206.523 188.18,197.55 "/>
<polygon opacity="0.1" fill="#534741" points="188.18,197.55 161.261,194.559 158.27,206.523 158.27,206.523 "/>
<polygon opacity="0.3" fill="#FFFFFF" points="-0.252,200.541 50.595,194.559 83.495,179.604 "/>
</svg>
